PathFileType	4	(x/y/z)	S02_M20_T05
DataRate	CameraRate	NumFrames	NumMarkers	Units	OrigDataRate	OrigDataStartFrame	OrigNumFrames
240	240	4	51	mm	240	230	459
Frame#	Time	Sternum			R.Acromium			L.Acromium			Top.Head			R.ASIS			L.ASIS			R.PSIS			L.PSIS			R.Great.Tro			L.Great.Tro			R.Iliac.Crest			L.Iliac.Crest			V.Sacral			R.Thigh.Upper.Post			R.Thigh.Lower.Ant			R.Thigh.Lower.Post			R.Thigh.Upper.Ant			R.Knee.Lat			R.Knee.Med			R.Shank.Upper.Post			R.Shank.Lower.Ant			R.Shank.Lower.Post			R.Shank.Upper.Ant			R.Ankle.Lat			R.Ankle.Med			R.Heel.Upper			R.Heel.Med			R.Heel.Lat			R.Toe.Lat			R.Toe.Med			R.Toe.Tip			L.Thigh.Upper.Post			L.Thigh.Lower.Ant			L.Thigh.Lower.Post			L.Thigh.Upper.Ant			L.Knee.Lat			L.Knee.Med			L.Shank.Upper.Post			L.Shank.Lower.Ant			L.Shank.Lower.Post			L.Shank.Upper.Ant			L.Ankle.Lat			L.Ankle.Med			L.Heel.Upper			L.Heel.Med			L.Heel.Lat			L.Toe.Lat			L.Toe.Med			L.Toe.Tip			Cervical.Spine			Back			
		X1	Y1	Z1	X2	Y2	Z2	X3	Y3	Z3	X4	Y4	Z4	X5	Y5	Z5	X6	Y6	Z6	X7	Y7	Z7	X8	Y8	Z8	X9	Y9	Z9	X10	Y10	Z10	X11	Y11	Z11	X12	Y12	Z12	X13	Y13	Z13	X14	Y14	Z14	X15	Y15	Z15	X16	Y16	Z16	X17	Y17	Z17	X18	Y18	Z18	X19	Y19	Z19	X20	Y20	Z20	X21	Y21	Z21	X22	Y22	Z22	X23	Y23	Z23	X24	Y24	Z24	X25	Y25	Z25	X26	Y26	Z26	X27	Y27	Z27	X28	Y28	Z28	X29	Y29	Z29	X30	Y30	Z30	X31	Y31	Z31	X32	Y32	Z32	X33	Y33	Z33	X34	Y34	Z34	X35	Y35	Z35	X36	Y36	Z36	X37	Y37	Z37	X38	Y38	Z38	X39	Y39	Z39	X40	Y40	Z40	X41	Y41	Z41	X42	Y42	Z42	X43	Y43	Z43	X44	Y44	Z44	X45	Y45	Z45	X46	Y46	Z46	X47	Y47	Z47	X48	Y48	Z48	X49	Y49	Z49	X50	Y50	Z50	X51	Y51	Z51	

230	0.95417	-267.19	1115.3	313.54	-376.61	1336.6	467.82	-380.26	1355.9	175.64	-348.51	1631.2	341.48	-294.66	932.74	424.76	-276.49	931.68	209.7	-507.67	966.17	347.75	-505.63	969.39	273.34	-374.65	814.37	502.54	-385.78	838.07	111.25	-401.38	979.19	473.76	-394.73	978.25	135.58	-531.03	919.4	302.81	-370.38	611.09	467.07	-318.55	533.66	423.97	-389.6	526.07	440.74	-302.58	618.31	449.15	-372.79	449.46	417.18	-385.33	445.65	275.09	-477.14	253.61	392.11	-415	165.64	365.97	-480.26	181.1	377.76	-407.67	232.5	387.15	-478.53	89.556	357.56	-470.71	104.03	275.87	-541.85	78.135	302.58	-529.31	45.346	275.96	-538.39	47.742	339.52	-376.79	39.721	379	-346.34	32.491	271.57	-296.49	58.832	325.56	-326.65	610.12	126.58	-225.6	565.18	123.96	-291.61	527.51	145.71	-268.74	649.09	107.35	-217.8	482.54	132.39	-204.11	477.39	272.19	-319.45	324.68	145.25	-260.41	230.09	140.9	-327.65	252.6	157.39	-258.66	305.81	130.25	-315.64	131.64	155.96	-287.37	125.74	235.86	-371.38	103.47	204.43	-357.64	77.353	235.69	-374.89	74.596	176.82	-221.8	46.88	113.46	-177.61	58.211	213.65	-127.57	68.576	155.57	-455.14	1405.3	329.82	-528	1152.1	322
231	0.95833	-262.44	1115.1	313.9	-371.81	1336.5	467.81	-375.45	1355.7	175.63	-343.5	1631	341.44	-290.48	932.5	425.27	-271.07	931.63	210.34	-503.05	965.91	346.9	-500.55	969.12	272.5	-371.13	814.28	502.58	-379.5	838.15	110.86	-397.52	978.96	473.61	-388.82	978.27	135.42	-526.06	919.1	301.78	-368.2	611.13	467.24	-316.77	533.25	424.37	-387.95	526.19	440.91	-300.22	617.83	449.46	-371.85	449.37	417.36	-383.88	445.5	275.29	-476.69	253.85	392.05	-414.85	165.68	366.04	-480.01	181.34	377.66	-407.32	232.52	387.24	-478.42	89.674	357.5	-470.51	104.2	275.81	-541.75	78.302	302.44	-529.21	45.489	275.92	-538.33	47.945	339.43	-376.76	39.661	378.97	-346.28	32.47	271.6	-296.41	58.756	325.61	-320.15	610.06	126.68	-218.9	565.58	124.72	-284.86	527.59	146.02	-262.3	649.29	107.83	-210.51	483.04	133.12	-197.71	477.87	273.12	-308.59	322.79	145.19	-247.24	229.66	141.16	-315.04	250.45	157.34	-247.3	305.41	130.53	-300.12	129.87	155.78	-272.03	124.45	235.78	-355.21	100.26	204.06	-341.11	74.511	235.37	-358.1	71.398	176.43	-204.24	47.264	113.62	-160.68	59.525	213.96	-110.69	71.092	156.03	-450.26	1405.1	329.79	-523.3	1152	321.77
232	0.9625	-257.68	1114.8	314.25	-367	1336.4	467.78	-370.63	1355.4	175.61	-338.49	1630.7	341.38	-286.27	932.22	425.75	-265.64	931.53	210.95	-498.41	965.61	346.05	-495.46	968.81	271.66	-367.59	814.18	502.59	-373.23	838.15	110.5	-393.63	978.69	473.44	-382.91	978.21	135.25	-521.09	918.76	300.77	-365.96	611.18	467.4	-314.95	532.85	424.75	-386.26	526.31	441.09	-297.83	617.35	449.75	-370.86	449.28	417.56	-382.43	445.35	275.49	-476.24	254.08	392	-414.68	165.72	366.13	-479.77	181.59	377.56	-406.95	232.54	387.35	-478.32	89.793	357.45	-470.3	104.37	275.76	-541.65	78.475	302.31	-529.1	45.636	275.87	-538.27	48.151	339.35	-376.74	39.602	378.95	-346.22	32.451	271.64	-296.32	58.679	325.65	-313.7	609.95	126.78	-212.26	565.91	125.47	-278.17	527.6	146.32	-255.9	649.42	108.31	-203.28	483.47	133.84	-191.38	478.25	274.04	-297.76	320.93	145.09	-234.14	229.3	141.44	-302.46	248.37	157.27	-235.99	305.05	130.81	-284.62	128.22	155.63	-256.78	123.3	235.74	-339.06	97.199	203.68	-324.63	71.835	235.07	-341.32	68.357	176.05	-186.74	47.825	113.88	-143.88	61.027	214.41	-93.951	73.787	156.67	-445.38	1404.9	329.74	-518.61	1151.8	321.53
233	0.96667	-252.93	1114.4	314.59	-362.19	1336.2	467.75	-365.81	1355.1	175.58	-333.48	1630.4	341.31	-282.05	931.9	426.2	-260.21	931.37	211.52	-493.77	965.26	345.22	-490.36	968.44	270.84	-364.04	814.07	502.59	-366.97	838.07	110.17	-389.71	978.38	473.26	-377.02	978.08	135.08	-516.11	918.39	299.78	-363.67	611.21	467.55	-313.1	532.46	425.1	-384.51	526.42	441.28	-295.4	616.88	450	-369.83	449.18	417.76	-380.99	445.21	275.69	-475.79	254.33	391.94	-414.48	165.76	366.24	-479.52	181.84	377.47	-406.58	232.55	387.47	-478.21	89.912	357.4	-470.09	104.54	275.71	-541.55	78.652	302.18	-529	45.785	275.82	-538.21	48.359	339.27	-376.72	39.546	378.94	-346.15	32.433	271.68	-296.23	58.604	325.7	-307.29	609.77	126.88	-205.67	566.15	126.22	-271.54	527.54	146.61	-249.54	649.49	108.81	-196.11	483.82	134.54	-185.12	478.54	274.95	-286.94	319.1	144.98	-221.11	229.02	141.76	-289.93	246.36	157.18	-224.73	304.71	131.11	-269.17	126.69	155.52	-241.63	122.3	235.74	-322.94	94.285	203.31	-308.22	69.324	234.77	-324.56	65.473	175.68	-169.3	48.567	114.27	-127.24	62.716	214.98	-77.364	76.66	157.47	-440.49	1404.6	329.68	-513.92	1151.6	321.27
